<svg id="Capa_1" data-name="Capa 1" xmlns="http://www.w3.org/2000/svg" width="790.188" height="537.757" viewBox="0 0 790.188 537.757">
  <g id="text">
    <path d="M76.3345,147.1406H88.5889l76.3349,190.9649H142.7129L82.7173,184.1592,20.9346,338.1055H0Z"/>
    <path d="M249.4258,209.1787a62.0989,62.0989,0,0,1,25.0195,5.106,64.1028,64.1028,0,0,1,20.2964,13.7861,65.269,65.269,0,0,1,13.5308,20.2964,64.0789,64.0789,0,0,1,0,49.5283,65.1819,65.1819,0,0,1-13.5308,20.2959,62.3088,62.3088,0,0,1-20.2964,13.6592,63.4615,63.4615,0,0,1-25.0195,4.9775V317.6807a44.2074,44.2074,0,0,0,17.36-3.4463,45.4858,45.4858,0,0,0,14.2969-9.4463,42.9125,42.9125,0,0,0,9.5737-14.169,44.8376,44.8376,0,0,0,3.4468-17.6162,44.4872,44.4872,0,0,0-44.6777-44.6767,44.8487,44.8487,0,0,0-17.6157,3.4463,42.9318,42.9318,0,0,0-14.169,9.5737,45.4949,45.4949,0,0,0-9.4463,14.2969,44.2224,44.2224,0,0,0-3.4463,17.36v127.65H185.6011v-127.65a61.89,61.89,0,0,1,4.978-24.6357,64.1231,64.1231,0,0,1,13.6587-20.2964,65.9483,65.9483,0,0,1,20.2964-13.7861A61.1764,61.1764,0,0,1,249.4258,209.1787Z"/>
    <path d="M395.9668,210.9658a61.8932,61.8932,0,0,1,24.6367,4.978,63.7624,63.7624,0,0,1,33.9551,33.9551,64.0777,64.0777,0,0,1,0,49.5278,62.62,62.62,0,0,1-13.6592,20.169A63.8995,63.8995,0,0,1,395.9668,337.85V318.7021a44.0394,44.0394,0,0,0,40.9756-26.9336,43.283,43.283,0,0,0,3.4472-17.2334,44.17,44.17,0,0,0-44.4228-44.4218,43.2844,43.2844,0,0,0-17.2324,3.4463A44.2892,44.2892,0,0,0,351.8,274.5351h-19.147a61.8913,61.8913,0,0,1,4.9781-24.6362,64.0963,64.0963,0,0,1,33.8271-33.9551A60.9764,60.9764,0,0,1,395.9668,210.9658Z"/>
    <path d="M478.4287,338.36V146.63h19.1475V338.36Z"/>
    <path d="M516.9756,338.36V146.63H536.123V338.36Z"/>
    <path d="M619.8564,210.9658a61.8937,61.8937,0,0,1,24.6368,4.978,63.7618,63.7618,0,0,1,33.955,33.9551,64.0765,64.0765,0,0,1,0,49.5278,62.6212,62.6212,0,0,1-13.6591,20.169A63.8995,63.8995,0,0,1,619.8564,337.85V318.7021a44.0394,44.0394,0,0,0,40.9756-26.9336,43.2813,43.2813,0,0,0,3.4473-17.2334,44.17,44.17,0,0,0-44.4229-44.4218A43.2851,43.2851,0,0,0,602.624,233.56,44.2887,44.2887,0,0,0,575.69,274.5351H556.542a61.9,61.9,0,0,1,4.9785-24.6362,64.096,64.096,0,0,1,33.8272-33.9551A60.9759,60.9759,0,0,1,619.8564,210.9658Z"/>
  </g>
  <path id="isotipo" d="M789.9785,261.2629c-.1221-4.8992-.7381-10.5886-1.0062-15.4881a283.8309,283.8309,0,0,0-6.2431-37.172,269.9368,269.9368,0,0,0-36.3765-84.4943,17.9846,17.9846,0,0,0-20.8-27.89,273.5665,273.5665,0,0,0-92.13-70.6084c-142.38-66.4547-312.1868,1.06-367.2753,148.863C312.1326,65.6059,425.3055-2.2624,543.0223,10.7923c68.9195,7.0353,130.8269,41.6772,174.0751,92.4692a17.9726,17.9726,0,0,0,20.1694,26.93,259.607,259.607,0,0,1,41.2853,114.49c10.2108,85.9777-23.5457,173.76-88.7643,230.96A273.4077,273.4077,0,0,1,567.5693,537.757a265.5471,265.5471,0,0,0,97.3557-37.3327c66.4462-41.9725,112.0417-112.6287,122.7056-190.5292.2715-2.15.76-6.6664,1.0348-8.8011.4841-2.7216.7487-10.5219,1.0839-13.2479.2649-2.4292.1645-6.4414.326-8.856C790.3533,274.0183,790.0367,266.2588,789.9785,261.2629Z"/>
</svg>
